<svg id="Layer_1" data-name="Layer 1" xmlns="http://www.w3.org/2000/svg" viewBox="0 0 100 100"><defs><style>.cls-1{fill:#007a3f;}.cls-10,.cls-11,.cls-2,.cls-3,.cls-4,.cls-5,.cls-6,.cls-7,.cls-8,.cls-9{fill:none;stroke:#fff;stroke-miterlimit:10;stroke-width:2px;}.cls-3{stroke-dasharray:1.96 1.3;}.cls-4{stroke-dasharray:3.2 2.13;}.cls-5{stroke-dasharray:2.03 1.35;}.cls-6{stroke-dasharray:3.02 2.02;}.cls-7{stroke-dasharray:2.79 1.86;}.cls-8{stroke-dasharray:3.02 2.02;}.cls-9{stroke-dasharray:2.68 1.79;}.cls-10{stroke-dasharray:2.79 1.86;}.cls-11{stroke-dasharray:3.16 2.11;}</style></defs><title>wykroje</title><circle class="cls-1" cx="50" cy="50" r="49.42"/><path class="cls-2" d="M66.25,28.19q.1-.75.19-1.49l-1.5,0"/><path class="cls-3" d="M63.63,26.67H61"/><path class="cls-2" d="M60.37,26.68l-1.5,0a6.41,6.41,0,0,1-.57,1.38"/><path class="cls-4" d="M57.07,29.81a8.73,8.73,0,0,1-6.25,2.6A8.47,8.47,0,0,1,43.9,29"/><path class="cls-2" d="M43.33,28.08a6.4,6.4,0,0,1-.56-1.38l-1.5,0"/><path class="cls-5" d="M39.92,26.67H37.21"/><path class="cls-2" d="M36.53,26.68l-1.5,0q.09.74.19,1.49"/><path class="cls-6" d="M35.2,30.05c.64,5.17,1.8,10.73-1.2,15.72V74"/><polyline class="cls-2" points="34.27 75.28 34.27 76.78 35.77 76.78"/><polyline class="cls-7" points="38 77 50.64 77 51.04 77 65 77"/><polyline class="cls-2" points="65.52 76.78 67.02 76.78 67.02 75.28"/><path class="cls-8" d="M67,73V45.77c-2-5.31-1.63-11.25-.9-16.72"/><polyline class="cls-2" points="76.12 46.49 77.23 47.5 78.44 46.61"/><line class="cls-9" x1="79.88" y1="45.55" x2="86.36" y2="40.77"/><polyline class="cls-2" points="87.08 40.24 88.28 39.35 87.3 38.22"/><path class="cls-10" d="M86.07,36.83l-9-10.28a6.43,6.43,0,0,0-3.19-2.3"/><path class="cls-2" d="M73,24a6.69,6.69,0,0,0-1-.09h-.54c-.06.49-.13,1-.2,1.49"/><path class="cls-11" d="M71,27.48C70.22,32.63,69.49,38,72.24,43l3.09,2.8"/><polyline class="cls-2" points="25.31 46.49 24.2 47.5 22.99 46.61"/><line class="cls-9" x1="21.55" y1="45.55" x2="15.07" y2="40.77"/><polyline class="cls-2" points="14.35 40.24 13.14 39.35 14.13 38.22"/><path class="cls-10" d="M15.35,36.83l9-10.28a6.43,6.43,0,0,1,3.19-2.3"/><path class="cls-2" d="M28.44,24a6.69,6.69,0,0,1,1-.09h.54c.06.49.13,1,.2,1.49"/><path class="cls-11" d="M30.44,27.48c.77,5.14,1.5,10.54-1.26,15.5l-3.09,2.8"/></svg>