<svg id="Layer_1" data-name="Layer 1" xmlns="http://www.w3.org/2000/svg" viewBox="0 0 270 85"><defs><style>.cls-1{fill:#fff;}.cls-1,.cls-2{fill-rule:evenodd;}.cls-2{fill:#007a3e;}</style></defs><title>Artboard 1</title><path class="cls-1" d="M3.67,49.09h20v5.15H11.14v3.84H22.75V63H11.14v4.75H24v5.47H3.67V49.09Zm24.36,0h7.46V67.28H47.13v5.95H28V49.09Zm22.48,0h20v5.15H58v3.84H69.59V63H58v4.75H70.86v5.47H50.51V49.09Zm24.33,0h12.4q4,0,6.06,1.93a7.22,7.22,0,0,1,2,5.48,7.44,7.44,0,0,1-2.2,5.72q-2.2,2.06-6.71,2.06H82.34v9H74.84V49.09Zm7.49,10.29h1.83a4.7,4.7,0,0,0,3-.75,2.42,2.42,0,0,0,.87-1.92,2.67,2.67,0,0,0-.76-1.93A3.9,3.9,0,0,0,84.46,54H82.34v5.38ZM99.26,49.09h7.46v8.45h8.15V49.09h7.49V73.23h-7.49V63.47h-8.15v9.76H99.26V49.09Zm42.91,20.15h-8.5l-1.17,4h-7.62L134,49.09h8.13l9.08,24.14h-7.81l-1.19-4ZM140.6,64l-2.67-8.68L135.28,64Zm13-14.93h7l9.09,13.35V49.09h7V73.23h-7l-9-13.25V73.23h-7V49.09Zm26.35,0h22.67v6H195V73.23h-7.46V55.05h-7.6v-6Z"/><path class="cls-1" d="M220,47.92a5.87,5.87,0,0,0-1.61,1.18,3.61,3.61,0,0,0-.8,1.44,6.13,6.13,0,0,0-.09,1.88c.09.77.23,1.43.28,2a2.68,2.68,0,0,1,0,.75,7.31,7.31,0,0,0-1.08,1,4.26,4.26,0,0,0-.89,1.14,1.51,1.51,0,0,0-.22.76,1.91,1.91,0,0,0,.52,1.2A5,5,0,0,0,218,60.63a13,13,0,0,0,2.84,1.07,4.92,4.92,0,0,0,1.36.2l.09,1.5a4.66,4.66,0,0,1-.23,1.78,3.58,3.58,0,0,1-1,1.45,6.67,6.67,0,0,1-1.27,1.05,1.14,1.14,0,0,0-.39.57,2.08,2.08,0,0,0,0,.65c.14.6,2.21,1.34,2.65,1.5s1.11.38,1.84.58c.54.15,1.09.27,1.35.34a12.9,12.9,0,0,0,2.38.38,2,2,0,0,0,1.43-.32,5.75,5.75,0,0,0,.56-.58,9.51,9.51,0,0,1-.21-1.42c0-.61-.07-1.33,0-2.26a19.88,19.88,0,0,1,.26-2.1s2,1.42,2.47,1.69,2.29,1.23,3.14,1.59a31.34,31.34,0,0,0,3.35,1.23c1.35.4,3.31.84,3.31.84a2.12,2.12,0,0,1-.26.86c-.25.45-1,.8-1.65,1.15a2.38,2.38,0,0,0-1,.88,2.15,2.15,0,0,0-.27.89,1.06,1.06,0,0,0,.19.66,1.17,1.17,0,0,0,.5.33c.29.13,1.14.42,1.61.56s1.31.39,1.87.54,2.95.66,2.95.66l.35.58a2,2,0,0,0,.75.54,4.37,4.37,0,0,0,1.28.21c.26,0,1.73,0,2.8,0a20.45,20.45,0,0,0,2.89-.3,18.69,18.69,0,0,0,2-.59c.23-.1.47-.21.54-.35a.45.45,0,0,0,0-.42c-.07-.12-.35-.71-.35-.71s-.47-1.39-.61-2-.34-1.72-.36-2-.11-1.34-.07-1.62a8.86,8.86,0,0,1,.23-1c0-.14.36-.76.47-1s1.13-2.35,1.13-2.35l1.39-2.77.26-.35s.89,0,1.26,0a6.43,6.43,0,0,0,1.75-.36,6.94,6.94,0,0,0,1.46-.83c.23-.19,1.24-.92,1.48-1.08s.81-.48,1.21-.67.83-.34,1-.43a1.71,1.71,0,0,0,.22-.13v-.33a1,1,0,0,0-.39-.09,3.41,3.41,0,0,0-.8.13,9.42,9.42,0,0,0-1.64.74c-.73.37-1.53.9-2.16,1.16a5.05,5.05,0,0,1-2,.47c-.75,0-.82.07-1-.16a3.75,3.75,0,0,1-.14-1.26c0-.63-.11-1.57-.3-2.83a23.71,23.71,0,0,0-.68-3.33A20.11,20.11,0,0,0,256.1,49a22.71,22.71,0,0,0-3.28-4.73,32.63,32.63,0,0,0-5-4.65,41.49,41.49,0,0,0-4.3-3c-1.77-1.08-2.45-1.38-3.08-1.78a6.19,6.19,0,0,1-1.53-1.12,4.35,4.35,0,0,1-.8-1.42c-.19-.61-.35-1-.66-2a8.74,8.74,0,0,0-1.52-3,8.21,8.21,0,0,0-2.28-1.85,12.81,12.81,0,0,0-3.27-1.2c-1.31-.28-3.33-.48-4-.56a17.53,17.53,0,0,1-3-.63,10,10,0,0,1-2.67-1.19,12,12,0,0,1-2.79-2.33,6.64,6.64,0,0,1-1.3-2.8,5.1,5.1,0,0,1,.21-2.59,4.4,4.4,0,0,1,1.64-2.23,8.23,8.23,0,0,1,3.28-1.3c1.1-.25,1.57-.28,1.57-.29l.16-1a2.85,2.85,0,0,1,.47-1.08,3.17,3.17,0,0,1,.54-.63l-.14-.44s-.86,0-1.38.09a26.23,26.23,0,0,0-2.89.56,14.59,14.59,0,0,0-3.48,1.28,12.16,12.16,0,0,0-2.81,2.3,12,12,0,0,0-1.5,3,9.87,9.87,0,0,0-.51,3.22,21.61,21.61,0,0,0,.56,5,34.23,34.23,0,0,0,1.5,5c.51,1.26.93,2.55.93,2.55l-1,.75s.89,1.45,1.33,2.24.56,1,1.07,1.94a23.81,23.81,0,0,1,1.54,3.52,12.47,12.47,0,0,0,.51,1.42,13.27,13.27,0,0,1,.63,2.05c.4,1.56.66,2.45.85,3.48s.37,2.33.37,2.33Z"/><path class="cls-2" d="M223.67,61.93s0,.8,0,1.41a10.13,10.13,0,0,1-.25,1.81,3.46,3.46,0,0,1-.74,1.47,17.05,17.05,0,0,1-1.5,1.49c-.07.08-.17.25-.13.36a.59.59,0,0,0,.26.31,7.92,7.92,0,0,0,1.31.54,16.4,16.4,0,0,0,2.78.71c.9.15,2.21.31,2.21.31a.56.56,0,0,0,.44-.11.67.67,0,0,0,.14-.44c0-.19-.08-.61-.12-1.66a15.57,15.57,0,0,1,.08-2.41c.06-.58.29-1.68.29-1.68s-.6-.47-1-.81a12,12,0,0,1-1.24-1.32c-.23-.29-.54-.75-.54-.75a4.75,4.75,0,0,1-1,.52,9.81,9.81,0,0,1-1,.25Z"/><path class="cls-2" d="M243.47,70.61a2.08,2.08,0,0,1-.31.8,3.17,3.17,0,0,1-.84,1,6.43,6.43,0,0,1-1.06.71,3,3,0,0,0-.31.2.47.47,0,0,0-.2.29.36.36,0,0,0,.17.36,4.19,4.19,0,0,0,1,.4c.46.14,1.31.37,1.89.51s1.93.41,1.93.41l.45-.57.43-.5a1.79,1.79,0,0,0,.42-.64.65.65,0,0,0,0-.51,3.22,3.22,0,0,0-.34-.61c-.2-.32-.34-.41-.37-.83s0-1.06,0-1.06a3.6,3.6,0,0,1-.87.08,8.13,8.13,0,0,1-1.26,0l-.61-.05Z"/><path class="cls-2" d="M242.82,64.25a11.82,11.82,0,0,0,1,1.39c.79.94,1.24,1.42,1.83,2s2,1.9,2,1.9a3.07,3.07,0,0,0-.08.89,2.7,2.7,0,0,0,.33,1.31,9.06,9.06,0,0,0,.62,1,5,5,0,0,1-.21,1,3.8,3.8,0,0,1-.54,1.19c-.27.39-.54.52-.64.69a.78.78,0,0,0-.1.34.7.7,0,0,0,.27.43,2,2,0,0,0,1,.39,14.8,14.8,0,0,0,2.12.08,19.69,19.69,0,0,0,2.12-.2,13.36,13.36,0,0,0,1.77-.44c.2-.08.35-.15.37-.28s.06-.12-.06-.46-.3-.94-.4-1.32-.34-1.59-.4-2-.15-1.4-.15-1.79a6.06,6.06,0,0,1,.11-1.31,5.17,5.17,0,0,1,.45-1.29c.25-.46.87-1.66,1.25-2.41s.85-1.62,1.12-2.23.46-1.12.56-1.43a7.14,7.14,0,0,0,.23-1.21,18.59,18.59,0,0,0-.12-2.31,20.43,20.43,0,0,0-.48-2.85c-.19-.67-.45-1.8-.77-2.66A27.13,27.13,0,0,0,255,50a24.69,24.69,0,0,0-1.64-2.78c-.44-.58-1.45-1.87-2.24-2.75a30,30,0,0,0-2.49-2.4,36.09,36.09,0,0,0-3-2.43c-1-.73-1.91-1.41-2.95-2S240,36.17,240,36.17a1.43,1.43,0,0,0,.23.58,1.67,1.67,0,0,1,.4.74.46.46,0,0,1-.23.51c-.23.17-.67.46-1.16.75s-1.1.64-1.33.83a2.72,2.72,0,0,0-.67.65,1.36,1.36,0,0,0-.21.56,2,2,0,0,0,0,.21s-.94.2-1.35.32a7.64,7.64,0,0,0-1.66.78,4.49,4.49,0,0,0-1,1,2.85,2.85,0,0,0-.42.89,6.16,6.16,0,0,0-.15.73,8.76,8.76,0,0,1-1.08.29c-.52.1-1.75.25-2.68.35s-4.49.21-4.49.21a20.56,20.56,0,0,1,1.15-2.34c.67-1.16,1.07-1.79,1.9-3.21s1.23-2,1.65-2.78a5.11,5.11,0,0,0,.59-1.31,1,1,0,0,0-.1-.67,1.87,1.87,0,0,0-.58-.59,5.7,5.7,0,0,1-.6-.57,9.34,9.34,0,0,1-.56-.81,4.22,4.22,0,0,1,.71.15,6.05,6.05,0,0,1,1,.35,2.84,2.84,0,0,1,1,.63,1.44,1.44,0,0,1,.39.73,2.19,2.19,0,0,1,0,.94,6,6,0,0,1-.57,1.34c-.35.65-.73,1.32-1.21,2.11s-1,1.76-1.29,2.26-.71,1.24-.9,1.68l-.28.65s.71,0,1.08,0,.9,0,1.47-.1a10.05,10.05,0,0,0,1.59-.32,5.84,5.84,0,0,0,.87-.33s.06-.77.06-1.37-.12-1.71-.12-1.71l1-1a.89.89,0,0,1,.17.52c0,.39.06,2,.06,2a2.3,2.3,0,0,1,.59-.55c.33-.19.65-.36,1.26-.67A10,10,0,0,0,235.6,40a1.05,1.05,0,0,0,0-.6,10.29,10.29,0,0,1-.27-1.13,3.39,3.39,0,0,1,0-.52,1.46,1.46,0,0,1,.09-.47,2.64,2.64,0,0,1,.16-.39,2.54,2.54,0,0,1,.28-.4,2.41,2.41,0,0,1,.29.64,3.6,3.6,0,0,0,.37,1,.85.85,0,0,0,.6.39,1.42,1.42,0,0,0,.71-.21,4.33,4.33,0,0,0,.75-.58c.21-.19.56-.46.56-.46a3.73,3.73,0,0,1-.5-.54,7.44,7.44,0,0,1-1-1.79c-.35-.83-.58-1.48-.92-2.43s-.58-1.75-.91-2.48a8.11,8.11,0,0,0-1.19-2,5.65,5.65,0,0,0-1.87-1.51,10.63,10.63,0,0,0-2.7-.93c-.83-.16-1.93-.27-2.68-.36a20.48,20.48,0,0,1-2.78-.48A14.55,14.55,0,0,1,221,23.48a11.29,11.29,0,0,1-2.57-1.71,8.41,8.41,0,0,1-1.61-1.68,5.42,5.42,0,0,1-1.07-1.93,7.89,7.89,0,0,1-.5-2.39,7.83,7.83,0,0,1,.27-2,9,9,0,0,1,.91-1.59A4.33,4.33,0,0,1,217.85,11a9.74,9.74,0,0,1,1.84-.83c.75-.21,2.46-.65,2.46-.65a1.7,1.7,0,0,1,.08-.52c.08-.17.33-.58.33-.58s-.9.17-1.47.3a21.71,21.71,0,0,0-2.58.74A11.57,11.57,0,0,0,215.78,11a12.15,12.15,0,0,0-1.64,2,10.87,10.87,0,0,0-.89,2.47,12.14,12.14,0,0,0-.24,3.23,18.54,18.54,0,0,0,.59,3.8,29.74,29.74,0,0,0,1,3.37c.21.5.35.89.91,2.25l1,2.45-.89.81s.27.42.91,1.68,1.16,2.21,1.75,3.66a36.41,36.41,0,0,1,1.31,3.41c.39,1.23.69,1.89,1.06,3.43s.5,2,.67,2.87.23,1.56.23,1.56a6.53,6.53,0,0,1,1.56.34,12.87,12.87,0,0,0,2.07.73,10.29,10.29,0,0,0,2.47.26c.89,0,2-.08,2-.08a1.22,1.22,0,0,1-.67.6,6.58,6.58,0,0,1-1.85.47A8.64,8.64,0,0,1,225,50c-1.28-.25-2-.68-2.82-.83a3.38,3.38,0,0,0-1.49,0,1.66,1.66,0,0,0-1.15.56A2.31,2.31,0,0,0,218.9,51a4.09,4.09,0,0,0-.12,1.56c0,.67.1,1.36.15,2.06a9.77,9.77,0,0,1,0,1.44s-.52.39-.87.72a3.47,3.47,0,0,0-.81.94,1.15,1.15,0,0,0-.13.62,1.38,1.38,0,0,0,.46.65,7.32,7.32,0,0,0,1.54,1,11.15,11.15,0,0,0,2.06.65,8.06,8.06,0,0,0,1.72.1,6.55,6.55,0,0,0,1.37-.16c.23-.08.51-.2.59-.39a1,1,0,0,0,0-.63c-.06-.27-.18-.39-.35-1.06s-.35-1.39-.4-1.81a7.75,7.75,0,0,1-.12-1.25,2.18,2.18,0,0,1,.12-.79.63.63,0,0,1,.35-.21,2,2,0,0,1,.6-.06,5,5,0,0,1,1.17.12,6.76,6.76,0,0,1,1.43.37c.69.27,1.19.48,1.77.77a7.56,7.56,0,0,0,1.69.71,6.25,6.25,0,0,0,1.39.25c.33,0,1.21-.17,1.21-.17a1.17,1.17,0,0,1-.52.7,2.33,2.33,0,0,1-1.25.38,3.68,3.68,0,0,1-1.54-.27c-.65-.23-1.06-.44-1.73-.73A11.05,11.05,0,0,0,227,55.8a2.77,2.77,0,0,0-1.14-.17c-.19.06-.41.11-.48.35a2.71,2.71,0,0,0-.13.69,4.55,4.55,0,0,0,.12.81,7.73,7.73,0,0,0,.36,1,11.6,11.6,0,0,0,.52,1,12.23,12.23,0,0,0,1.43,2,17.68,17.68,0,0,0,2.9,2.51,45.44,45.44,0,0,0,3.93,2.4,37.37,37.37,0,0,0,4,1.71c1,.33,1.63.54,2.63.81a15.09,15.09,0,0,0,2.62.44,4.89,4.89,0,0,0,1.07,0,1,1,0,0,0,.29-.06.86.86,0,0,0,.32-.2s-.42-.46-.94-1.1a17.31,17.31,0,0,1-1.31-1.75,2.37,2.37,0,0,1-.46-1.08,4.12,4.12,0,0,1,.08-1Z"/><path class="cls-1" d="M226.38,7.8a2.14,2.14,0,0,1,1,.26,2,2,0,0,1,.77.76,2.11,2.11,0,0,1,.28,1,2.15,2.15,0,0,1-.26,1,1.91,1.91,0,0,1-.77.77,2,2,0,0,1-2,0,1.91,1.91,0,0,1-.77-.77,2.15,2.15,0,0,1-.26-1,2.11,2.11,0,0,1,.28-1,2,2,0,0,1,.77-.76,2.18,2.18,0,0,1,1-.26Zm0,.34a1.69,1.69,0,0,0-.84.22,1.55,1.55,0,0,0-.64.63,1.69,1.69,0,0,0-.24.86,1.79,1.79,0,0,0,.23.86,1.62,1.62,0,0,0,.64.63,1.75,1.75,0,0,0,.85.23,1.79,1.79,0,0,0,.86-.23,1.67,1.67,0,0,0,.63-.63,1.73,1.73,0,0,0,0-1.72,1.7,1.7,0,0,0-.64-.63,1.77,1.77,0,0,0-.85-.22ZM225.47,11V8.79h.77a1.74,1.74,0,0,1,.56.06.57.57,0,0,1,.28.22.54.54,0,0,1,.1.32.61.61,0,0,1-.17.42.68.68,0,0,1-.46.2.56.56,0,0,1,.18.11,2.49,2.49,0,0,1,.33.45l.26.42h-.42l-.21-.34a1.75,1.75,0,0,0-.37-.52.43.43,0,0,0-.29-.07h-.21V11Zm.37-1.24h.42a.72.72,0,0,0,.42-.09.31.31,0,0,0,.11-.25.26.26,0,0,0-.06-.17.31.31,0,0,0-.15-.11,1.19,1.19,0,0,0-.36,0h-.4v.67Z"/></svg>